<?xml version="1.0" standalone="no"?>
<!DOCTYPE svg PUBLIC "-//W3C//DTD SVG 20010904//EN"
 "http://www.w3.org/TR/2001/REC-SVG-20010904/DTD/svg10.dtd">
<svg version="1.0" xmlns="http://www.w3.org/2000/svg"
 width="200.000000pt" height="200.000000pt" viewBox="0 0 200.000000 200.000000"
 preserveAspectRatio="xMidYMid meet">
<metadata>
Created by potrace 1.14, written by Peter Selinger 2001-2017
</metadata>
<g transform="translate(0.000000,200.000000) scale(0.100000,-0.100000)"
fill="#000000" stroke="none">
<path d="M227 1933 c-4 -3 -7 -34 -7 -67 0 -60 -12 -98 -24 -78 -8 14 -105 12
-114 -2 -4 -6 -11 23 -17 64 -9 65 -13 75 -30 75 -17 0 -20 -8 -23 -55 -5 -86
17 -242 37 -265 10 -11 44 -99 75 -195 32 -96 63 -188 70 -205 8 -16 26 -59
42 -95 15 -36 38 -81 50 -100 l21 -35 -71 -69 -71 -68 65 -12 c71 -13 96 -24
124 -55 15 -17 17 -25 7 -52 -18 -53 -15 -67 16 -61 l26 5 -25 -34 c-29 -39
-68 -138 -68 -175 0 -24 1 -24 30 -9 17 9 66 19 110 23 l80 8 0 -40 c1 -23 7
-52 14 -65 l13 -24 17 24 c15 23 16 21 16 -47 0 -57 20 -154 36 -173 2 -2 23
18 46 44 23 26 60 56 83 66 l40 18 40 -39 c23 -22 44 -40 48 -40 4 0 7 12 7
28 1 24 4 22 26 -22 25 -47 114 -146 132 -146 5 0 12 24 15 54 5 52 20 91 51
129 13 17 16 17 65 1 29 -9 54 -14 57 -12 2 3 0 17 -6 32 l-10 27 33 -24 c49
-36 134 -68 172 -65 l33 3 -19 39 c-12 26 -19 61 -19 102 l0 62 53 12 c69 17
71 18 45 40 l-23 19 71 1 c69 0 174 25 174 41 0 4 -9 11 -20 14 -23 7 -95 94
-105 126 -5 16 3 31 34 63 44 45 49 56 26 56 -24 0 -17 14 14 28 16 7 56 38
88 69 l58 56 -58 12 c-31 6 -62 16 -68 22 -7 7 -1 30 22 74 62 124 158 386
183 501 3 14 17 39 30 55 27 33 50 168 44 268 -3 52 -6 60 -23 60 -15 0 -21
-8 -23 -30 -1 -16 -5 -49 -8 -72 -5 -39 -7 -41 -24 -30 -15 9 -22 9 -31 0 -9
-9 -16 -9 -30 0 -15 9 -23 9 -38 0 -24 -15 -31 -1 -31 63 0 58 -14 84 -46 84
-35 0 -38 -19 -20 -110 27 -133 20 -150 -49 -118 -20 9 -28 9 -38 -1 -17 -17
2 -42 46 -57 21 -7 57 -29 80 -48 39 -32 43 -39 45 -88 5 -111 -47 -317 -111
-441 -45 -88 -68 -92 -43 -7 9 30 14 55 12 58 -2 2 -13 -1 -24 -7 -33 -18 -35
-13 -9 22 31 40 67 138 67 179 l0 30 -27 -18 c-19 -12 -54 -19 -109 -22 l-81
-4 -7 49 c-8 60 -14 68 -38 46 -17 -15 -18 -13 -18 52 0 63 -25 175 -40 175
-3 0 -14 -13 -23 -30 -18 -30 -57 -62 -114 -92 l-31 -17 -37 44 c-20 25 -41
45 -46 45 -5 0 -9 -15 -9 -32 0 -33 0 -32 -25 17 -24 47 -120 155 -137 155 -4
0 -8 -19 -9 -42 -1 -50 -15 -93 -45 -133 l-21 -29 -59 17 c-32 9 -60 15 -62
12 -2 -2 3 -14 12 -27 27 -38 18 -39 -29 -3 -44 33 -78 46 -157 59 l-36 7 19
-51 c11 -29 19 -75 19 -109 l0 -59 -46 -7 c-76 -11 -81 -15 -51 -39 l26 -21
-87 -1 c-57 -1 -100 -7 -125 -18 l-39 -17 46 -40 c50 -44 86 -97 86 -126 0
-18 -46 -71 -53 -62 -17 19 -70 141 -88 200 -25 84 -48 221 -49 290 0 42 4 49
42 80 23 19 60 41 82 50 47 19 66 43 49 60 -8 8 -20 8 -46 -2 -45 -16 -71 -6
-63 24 20 70 39 176 33 190 -6 17 -57 24 -70 10z"/>
</g>
</svg>
